<?xml version="1.0" standalone="no"?>
<!DOCTYPE svg PUBLIC "-//W3C//DTD SVG 20010904//EN"
 "http://www.w3.org/TR/2001/REC-SVG-20010904/DTD/svg10.dtd">
<svg version="1.0" xmlns="http://www.w3.org/2000/svg"
 width="650.000000pt" height="400.000000pt" viewBox="0 0 650.000000 400.000000"
 preserveAspectRatio="xMidYMid meet">

<g transform="translate(0.000000,400.000000) scale(0.100000,-0.100000)"
fill="#000000" stroke="none">
<path d="M3193 3839 c-203 -13 -387 -62 -579 -153 -318 -152 -570 -396 -728
-706 l-55 -107 23 -11 c27 -12 70 -66 81 -99 9 -32 18 -29 42 15 87 153 252
159 253 8 l1 -51 21 40 c29 57 77 104 116 115 78 21 132 -19 132 -99 1 -46 1
-45 39 54 54 142 94 217 135 253 63 55 152 55 187 -1 31 -52 24 -99 -32 -221
-50 -107 -102 -246 -96 -253 2 -2 12 6 22 17 11 12 31 20 49 20 34 0 96 -33
96 -51 0 -6 24 9 53 34 67 56 113 83 179 106 l53 18 5 59 c6 66 46 157 85 194
29 27 25 39 -10 33 -13 -3 -22 -10 -19 -15 4 -6 -5 -2 -20 7 -14 9 -23 22 -20
27 4 6 10 4 16 -6 8 -14 12 -15 38 -1 16 8 41 15 55 15 18 0 24 4 19 13 -4 6
-4 9 0 5 4 -3 39 7 76 23 190 81 392 48 496 -79 24 -30 44 -59 44 -65 0 -6 33
21 73 60 106 105 207 147 297 123 116 -31 163 -154 105 -277 l-24 -53 37 25
c68 44 158 53 235 23 29 -11 87 5 87 25 0 17 -89 176 -143 256 -255 379 -721
648 -1173 676 -49 3 -100 7 -114 9 -14 1 -76 -1 -137 -5z m204 -157 c-13 -14
-14 -21 -5 -30 8 -8 5 -9 -11 -5 -27 7 -27 18 1 37 30 21 35 20 15 -2z m83 6
c0 -4 -4 -8 -9 -8 -6 0 -12 4 -15 8 -3 5 1 9 9 9 8 0 15 -4 15 -9z m-35 -8 c3
-5 2 -10 -4 -10 -5 0 -13 5 -16 10 -3 6 -2 10 4 10 5 0 13 -4 16 -10z m105
-42 c0 -5 -3 -7 -6 -5 -3 1 -10 -6 -15 -15 -6 -10 -19 -18 -30 -18 -11 0 -18
4 -14 10 3 5 13 6 23 3 14 -5 15 -3 5 8 -20 21 -15 31 12 27 14 -2 25 -6 25
-10z m68 3 c11 -7 11 -9 -1 -14 -9 -3 -21 1 -27 9 -10 11 -10 14 1 14 8 0 20
-4 27 -9z m-326 -26 c16 -20 16 -21 0 -22 -12 -1 -18 7 -20 24 -1 15 -1 25 1
22 1 -2 10 -13 19 -24z m118 -7 c0 -6 -6 -5 -15 2 -8 7 -15 14 -15 16 0 2 7 1
15 -2 8 -4 15 -11 15 -16z m50 4 c0 -5 -7 -9 -15 -9 -8 0 -15 4 -15 9 0 4 7 8
15 8 8 0 15 -4 15 -8z m-67 -154 c-2 -5 7 -8 21 -8 30 0 40 -13 32 -46 -5 -20
-10 -23 -25 -15 -10 6 -26 10 -37 11 -29 1 -125 8 -161 11 -30 3 -31 4 -15 20
10 9 31 20 47 26 34 11 145 12 138 1z m227 -68 c0 -5 -5 -10 -11 -10 -5 0 -7
5 -4 10 3 6 8 10 11 10 2 0 4 -4 4 -10z m270 -34 c0 3 10 -4 22 -16 12 -11 30
-20 39 -20 10 0 21 -9 24 -21 5 -14 13 -19 26 -16 10 3 19 1 19 -3 0 -5 9 -12
20 -15 11 -4 17 -11 14 -17 -4 -5 -9 -6 -13 -2 -3 5 -10 9 -16 9 -24 1 -75 17
-75 24 0 5 -27 25 -60 45 -70 43 -87 63 -36 42 20 -8 36 -13 36 -10z m-70 -27
c0 -4 -7 -6 -15 -3 -8 4 -15 10 -15 15 0 4 7 6 15 3 8 -4 15 -10 15 -15z m228
-22 c13 5 14 3 5 -7 -13 -14 -33 -5 -32 13 0 9 2 9 5 0 3 -7 13 -9 22 -6z
m-158 -7 c8 -5 12 -11 9 -14 -3 -3 -14 1 -25 9 -21 16 -8 20 16 5z m-920 -317
c-1 -16 -36 -51 -57 -58 -26 -7 -30 9 -10 36 18 23 67 39 67 22z m187 -125
c-3 -8 -6 -5 -6 6 -1 11 2 17 5 13 3 -3 4 -12 1 -19z m-17 -2 c0 -3 -4 -8 -10
-11 -5 -3 -10 -1 -10 4 0 6 5 11 10 11 6 0 10 -2 10 -4z"/>
<path d="M5230 3833 c-45 -31 -90 -104 -90 -147 0 -25 -24 -38 -126 -65 -71
-19 -129 -72 -169 -156 -19 -41 -35 -81 -35 -89 0 -9 -11 -50 -25 -92 -35
-106 -33 -130 11 -168 27 -24 38 -42 45 -79 5 -31 5 -56 -1 -67 -15 -27 -12
-77 4 -83 27 -11 97 15 113 42 65 106 84 121 153 121 27 0 48 -8 67 -24 24
-21 28 -31 28 -80 0 -48 3 -56 23 -65 13 -7 25 -23 29 -41 4 -24 8 -28 19 -19
7 6 11 16 8 24 -4 9 12 18 50 29 44 13 57 22 62 41 11 44 1 53 -54 47 -28 -2
-52 0 -56 6 -9 15 3 39 22 48 25 10 103 26 135 26 17 1 27 6 27 15 0 8 9 28
20 43 11 16 19 34 18 41 -4 16 187 137 237 150 76 21 135 55 135 79 0 26 -18
29 -65 13 -22 -8 -56 -16 -75 -19 -31 -5 -42 -12 -52 -34 -2 -3 -55 -36 -118
-73 -92 -53 -116 -63 -123 -52 -12 23 -27 18 -27 -10 0 -34 -82 -84 -106 -64
-13 10 -14 24 -9 68 4 31 12 65 18 76 5 11 11 33 13 50 1 16 8 55 15 85 11 42
18 55 30 52 13 -2 15 3 12 22 -3 15 1 36 9 48 25 38 41 149 29 194 -15 56 -47
103 -77 114 -39 15 -97 12 -124 -7z"/>
<path d="M1213 3749 c-9 -9 -13 -58 -13 -170 l0 -157 48 -6 c44 -6 350 -26
398 -26 12 0 24 7 28 15 5 14 -10 211 -20 262 -5 27 -6 27 -189 57 -232 38
-239 39 -252 25z m262 -65 c118 -16 155 -31 155 -61 0 -10 -15 -12 -59 -11
-32 2 -57 6 -55 10 5 7 -74 22 -91 17 -17 -4 -141 12 -154 21 -10 6 -10 12 1
29 10 18 20 21 48 17 19 -3 89 -13 155 -22z m-3 -139 c75 -8 144 -15 153 -15
11 0 15 -7 13 -22 -2 -16 -9 -22 -23 -21 -11 1 -83 7 -160 13 -184 15 -185 15
-185 45 0 21 4 23 33 19 17 -2 94 -11 169 -19z"/>
<path d="M330 3583 c-45 -34 -100 -85 -100 -93 0 -4 39 -33 86 -65 l85 -58
-32 -33 c-37 -38 -34 -45 26 -64 22 -7 98 -35 169 -61 71 -27 140 -49 153 -49
41 0 25 27 -49 86 -40 31 -77 61 -82 65 -6 5 0 19 14 33 22 25 22 26 5 53 -10
15 -50 65 -89 111 -52 60 -80 85 -106 92 -45 13 -40 14 -80 -17z m128 -100
l84 -95 -31 -32 c-17 -18 -31 -34 -31 -37 0 -3 32 -27 70 -53 39 -27 70 -50
70 -52 0 -5 -234 78 -244 87 -6 5 2 17 17 29 15 12 27 27 27 34 0 7 -38 39
-85 71 -47 32 -84 59 -83 61 28 25 106 83 113 83 6 0 48 -43 93 -96z m38 20
c104 -119 99 -113 83 -113 -8 0 -52 43 -97 95 -46 52 -77 95 -69 95 8 0 45
-35 83 -77z m79 -153 c-10 -11 -27 -20 -38 -20 -19 0 -20 1 -2 20 10 11 27 20
38 20 19 0 20 -1 2 -20z m59 -100 c77 -61 90 -75 59 -62 -20 8 -163 112 -163
118 0 16 39 -5 104 -56z"/>
<path d="M6199 3527 c-31 -14 -160 -156 -186 -205 -18 -33 -18 -34 5 -52 13
-11 21 -24 17 -29 -3 -6 -42 -38 -85 -72 -123 -95 -100 -116 58 -55 48 18 123
46 167 61 125 42 123 41 84 81 -38 39 -41 33 64 103 42 28 77 57 77 63 0 6
-19 27 -42 47 -85 74 -107 82 -159 58z m15 -29 c-11 -13 -51 -58 -89 -100 -61
-69 -93 -96 -83 -69 7 22 145 174 163 182 30 12 30 11 9 -13z m134 -45 l34
-28 -86 -58 c-47 -33 -89 -64 -93 -70 -3 -6 9 -23 27 -39 19 -15 32 -29 29
-31 -14 -13 -257 -92 -248 -81 5 7 37 30 70 51 32 21 59 42 59 48 0 5 -14 23
-30 40 l-30 31 92 102 91 101 26 -19 c14 -10 41 -31 59 -47z m-266 -170 c21
-18 23 -33 6 -33 -14 0 -48 30 -48 42 0 13 22 9 42 -9z m-22 -73 c-81 -65
-143 -110 -153 -110 -14 0 -9 4 76 72 40 31 79 57 87 57 10 0 6 -6 -10 -19z"/>
<path d="M505 3156 c-24 -10 -34 -24 -48 -68 -9 -30 -17 -57 -17 -61 0 -3 34
-11 75 -18 l75 -12 -7 -40 -6 -40 99 6 c54 4 118 7 142 7 23 0 42 4 42 9 0 5
-29 26 -64 46 -56 34 -63 41 -62 67 1 27 -5 33 -84 74 -93 48 -101 49 -145 30z
m130 -38 c36 -18 65 -36 65 -41 0 -11 -32 -1 -115 38 -56 27 -65 33 -43 34 15
1 57 -13 93 -31z m-59 -23 c76 -33 79 -36 76 -65 -2 -27 2 -33 30 -45 18 -7
51 -17 73 -21 l40 -8 -40 -7 c-22 -4 -66 -8 -98 -8 l-58 -1 6 33 7 34 -64 12
c-95 19 -90 14 -71 66 10 25 18 45 18 45 1 0 37 -16 81 -35z m138 -59 c-7 -17
-34 -23 -34 -6 0 9 32 31 38 26 1 -2 0 -11 -4 -20z m46 -46 c18 -12 2 -12 -25
0 -13 6 -15 9 -5 9 8 0 22 -4 30 -9z"/>
<path d="M1237 3086 c-133 -37 -174 -177 -97 -326 18 -36 40 -78 49 -95 42
-82 -2 -163 -83 -152 -25 4 -48 14 -58 27 -23 28 -24 102 -3 120 9 7 15 23 13
34 -4 31 -62 33 -112 4 -104 -60 -131 -253 -51 -368 31 -45 86 -77 156 -90
148 -28 288 67 319 217 16 75 2 125 -70 253 -63 110 -72 148 -44 188 11 15 25
22 50 22 44 0 62 -32 45 -81 -8 -24 -8 -35 0 -45 17 -21 35 -17 73 16 89 78
82 215 -13 265 -42 21 -120 26 -174 11z"/>
<path d="M3533 3090 c-109 -23 -208 -97 -249 -185 -29 -61 -32 -159 -8 -211
47 -98 190 -110 245 -20 25 41 24 61 -6 80 -31 21 -40 55 -25 101 20 60 94 84
141 46 67 -54 -16 -281 -130 -358 -87 -58 -181 -49 -215 20 -16 34 -22 38 -45
32 -131 -31 -165 -243 -53 -324 65 -46 184 -46 276 1 104 53 202 203 247 378
25 97 40 120 63 100 23 -18 20 -53 -15 -187 -49 -189 -41 -228 46 -228 65 0
81 21 125 171 58 200 95 271 130 249 16 -10 12 -31 -25 -140 -70 -204 -36
-335 85 -335 46 0 90 25 142 83 45 49 48 50 48 26 0 -35 39 -92 71 -103 62
-22 144 25 200 113 l29 46 0 -53 c0 -46 4 -58 29 -83 51 -50 125 -33 187 44
l27 35 21 -42 c26 -51 57 -68 118 -63 59 5 118 44 166 109 l35 47 22 -48 c52
-112 166 -142 294 -76 89 45 237 229 210 261 -17 21 -28 18 -68 -24 -49 -51
-103 -75 -177 -80 -72 -5 -124 16 -124 49 0 16 4 19 18 14 93 -38 203 2 243
89 69 152 -80 258 -245 175 -59 -29 -106 -85 -145 -171 -36 -79 -49 -90 -110
-96 -61 -5 -91 19 -91 73 0 83 39 125 115 125 40 0 69 33 63 72 -2 19 -10 23
-45 26 -48 4 -49 5 -28 55 20 48 19 84 -2 95 -25 13 -59 -2 -79 -35 -58 -95
-78 -113 -124 -113 -31 0 -27 -55 4 -76 l25 -16 -30 -81 c-35 -98 -65 -129
-118 -125 -32 3 -36 6 -39 35 -2 20 10 62 32 113 43 98 46 137 12 146 -16 4
-38 -2 -63 -17 -23 -13 -46 -19 -54 -15 -8 4 -25 13 -39 21 -66 39 -183 -1
-248 -84 -22 -28 -48 -72 -57 -98 -23 -64 -65 -103 -110 -103 -68 0 -82 84
-40 228 23 75 44 97 96 97 40 0 45 3 66 40 34 60 31 125 -6 167 -27 30 -35 33
-84 32 -97 0 -207 -86 -294 -226 l-37 -60 -16 61 c-28 101 -85 169 -172 206
-46 19 -160 27 -215 15z m1941 -393 c25 -18 17 -56 -17 -81 -26 -19 -30 -19
-55 -5 -36 20 -39 43 -8 74 28 28 53 32 80 12z m-872 -44 c22 -20 23 -54 3
-93 -41 -80 -147 -60 -131 24 8 39 56 86 88 86 12 0 30 -7 40 -17z"/>
<path d="M5420 2661 c0 -5 5 -13 10 -16 6 -3 10 -2 10 4 0 5 -4 13 -10 16 -5
3 -10 2 -10 -4z"/>
<path d="M5957 3043 c-84 -44 -88 -47 -85 -77 3 -27 -2 -33 -42 -56 -82 -46
-86 -48 -75 -58 6 -5 72 -12 148 -16 l139 -6 -7 39 c-7 44 -7 45 83 56 30 4
56 13 59 21 9 23 -33 118 -58 131 -40 21 -70 14 -162 -34z m138 18 c-18 -15
-166 -72 -178 -68 -19 6 125 76 158 77 17 0 25 -4 20 -9z m59 -87 c5 -18 -1
-21 -66 -35 l-73 -14 1 -39 1 -38 -45 6 c-24 3 -72 6 -106 6 l-61 1 80 27 c44
15 79 32 78 37 0 6 -3 19 -5 29 -2 16 13 27 82 58 l85 37 11 -27 c6 -15 14
-36 18 -48z m-220 -19 c4 -10 -1 -15 -14 -15 -11 0 -20 7 -20 15 0 8 6 15 14
15 8 0 16 -7 20 -15z m-25 -39 c-2 -1 -19 -8 -36 -14 -37 -12 -45 -6 -10 8 22
9 54 13 46 6z"/>
<path d="M2715 3043 c-39 -40 -69 -104 -141 -303 -40 -111 -71 -181 -85 -192
-24 -21 -69 -24 -87 -6 -18 18 -15 77 8 143 22 63 26 130 9 140 -20 13 -58 -5
-85 -41 -15 -19 -42 -74 -60 -122 -42 -111 -61 -134 -111 -130 -35 3 -38 5
-41 38 -2 19 6 67 18 107 26 89 24 147 -6 151 -46 7 -108 -74 -148 -193 -19
-58 -32 -77 -63 -93 -40 -22 -53 -16 -42 20 12 43 11 104 -2 153 -38 141 -214
152 -339 22 -95 -98 -138 -272 -91 -364 32 -65 73 -88 151 -88 74 1 110 16
174 75 22 20 57 41 76 45 19 4 47 13 61 21 l27 13 6 -51 c8 -60 49 -108 91
-108 59 0 102 34 173 136 7 11 10 14 7 7 -11 -23 8 -97 31 -120 44 -44 139
-21 201 50 l30 35 12 -38 c14 -47 30 -60 80 -67 87 -12 167 58 244 213 27 53
33 74 24 83 -17 17 -31 13 -62 -19 -38 -40 -101 -43 -115 -6 -16 44 28 188
114 366 39 80 46 134 20 144 -30 12 -51 6 -79 -21z m-983 -390 c47 -42 -3
-143 -71 -143 -66 0 -78 85 -19 135 34 29 64 32 90 8z"/>
<path d="M3557 2843 c-14 -13 -6 -33 13 -33 13 0 20 7 20 20 0 19 -20 27 -33
13z"/>
<path d="M4309 2783 c-32 -4 -37 -8 -48 -44 -18 -59 -26 -139 -14 -139 6 0 18
20 28 46 9 25 32 67 50 95 19 27 31 48 27 47 -4 -1 -23 -3 -43 -5z"/>
<path d="M5097 2653 c-10 -9 -9 -63 1 -63 16 0 50 30 55 50 4 16 0 20 -22 20
-15 0 -31 -3 -34 -7z"/>
<path d="M1806 2299 c-22 -22 -52 -45 -68 -51 -26 -12 -28 -17 -28 -71 0 -79
25 -233 55 -347 14 -51 27 -96 29 -98 5 -4 9 12 26 85 l12 51 35 -15 c39 -16
38 -16 77 42 15 22 25 31 22 20 -2 -11 -10 -48 -17 -83 -13 -67 -15 -68 -71
-47 -10 4 -25 -9 -42 -35 -21 -33 -26 -48 -20 -73 6 -29 1 -26 -76 46 l-83 77
-269 0 -268 0 0 -537 0 -538 84 -52 83 -53 272 0 271 0 0 507 0 507 40 -83
c22 -45 61 -115 86 -154 46 -72 174 -237 184 -237 3 0 3 28 2 61 -2 34 2 81 8
106 16 55 88 138 136 153 l34 12 -26 31 c-58 69 -72 167 -39 267 47 142 237
245 466 252 51 2 89 7 89 13 0 6 -7 32 -15 59 -8 27 -15 83 -15 123 l0 75 -42
-37 c-59 -50 -133 -71 -198 -55 -26 6 -56 20 -65 30 -16 17 -18 17 -62 -8 -64
-36 -158 -36 -205 0 l-33 24 -32 -21 c-89 -61 -211 -31 -249 61 -18 43 -38 42
-88 -7z m-141 -699 c18 -4 -32 -8 -120 -8 -90 1 -136 4 -115 8 46 10 197 10
235 0z m-287 -71 c4 -19 -27 -34 -41 -20 -14 14 0 43 20 39 10 -2 19 -10 21
-19z m382 2 c0 -14 -18 -23 -30 -16 -6 4 -8 11 -5 16 8 12 35 12 35 0z m-161
-215 c12 -26 12 -33 0 -55 -35 -62 -119 -45 -119 24 0 45 23 67 69 63 28 -2
39 -9 50 -32z m-2 -378 c43 -40 23 -118 -33 -132 -78 -20 -136 74 -82 131 28
30 83 31 115 1z m200 -215 c-1 -43 -3 -10 -3 72 0 83 2 118 3 78 2 -40 2 -107
0 -150z"/>
<path d="M3925 2310 c-10 -11 -32 -25 -50 -31 -31 -12 -33 -15 -38 -78 -18
-220 -187 -416 -402 -466 l-50 -12 35 -15 c42 -18 84 -64 101 -112 l12 -34 49
63 c56 75 98 109 152 124 48 13 127 -2 150 -28 16 -17 18 -17 69 0 44 15 56
24 77 63 14 26 35 56 46 67 44 44 147 42 179 -4 8 -12 15 -43 15 -70 0 -40 4
-53 24 -68 48 -37 45 -136 -4 -189 -24 -26 -35 -30 -78 -30 -52 0 -62 -9 -62
-51 0 -28 24 -23 63 11 41 36 87 39 134 10 61 -37 55 -84 -27 -217 -123 -200
-301 -272 -412 -166 l-28 26 -47 -26 c-113 -61 -251 -58 -337 8 l-44 33 -42
-28 c-62 -41 -156 -64 -226 -56 -139 16 -221 115 -226 272 -1 61 -3 65 -22 60
-12 -3 -37 -6 -56 -6 -34 -1 -36 -3 -78 -90 -49 -103 -133 -201 -209 -242 -62
-34 -163 -52 -225 -40 -27 5 -48 8 -48 6 0 -10 188 -128 269 -169 361 -181
811 -217 1197 -95 616 195 1066 762 1110 1400 l6 95 -35 18 c-33 18 -36 18
-61 2 -64 -42 -164 -38 -210 8 l-22 22 -42 -26 c-76 -48 -168 -45 -222 6 l-28
27 -39 -26 c-103 -68 -217 -51 -279 41 -21 32 -22 32 -39 13z"/>
<path d="M5150 2285 l-23 -25 48 0 48 0 -23 25 c-13 14 -24 25 -25 25 -1 0
-12 -11 -25 -25z"/>
<path d="M2906 2113 c-9 -22 1 -28 19 -13 12 10 15 9 15 -6 1 -18 1 -18 15 0
21 28 19 33 -14 34 -18 0 -32 -5 -35 -15z"/>
<path d="M2986 2095 c-17 -18 -22 -55 -7 -55 5 0 11 10 13 22 4 33 36 35 44 4
3 -14 13 -26 21 -26 12 0 12 6 -4 32 -22 38 -44 46 -67 23z"/>
<path d="M3698 2102 c-13 -5 -15 -11 -8 -22 8 -12 11 -13 19 -1 7 11 9 11 13
0 3 -8 9 -11 13 -7 9 8 -1 38 -12 37 -4 0 -16 -3 -25 -7z"/>
<path d="M3187 2093 c-11 -10 -8 -51 3 -58 6 -4 10 8 10 29 0 37 -2 41 -13 29z"/>
<path d="M3436 2085 c-7 -19 0 -35 26 -53 10 -7 16 -18 12 -23 -4 -6 -11 -6
-20 2 -11 9 -14 8 -14 -4 0 -19 30 -31 43 -18 7 7 16 7 28 1 11 -7 20 -7 24 0
3 5 12 7 19 4 8 -3 17 4 21 18 l8 23 4 -23 c3 -15 10 -22 18 -18 8 3 17 1 20
-4 3 -5 13 -6 21 -3 12 4 15 1 12 -13 -2 -11 -11 -18 -21 -16 -21 4 -23 -16
-2 -24 28 -11 45 16 45 72 0 54 0 54 -27 48 -16 -4 -34 -11 -40 -17 -9 -6 -13
-6 -13 1 0 13 -88 14 -96 1 -6 -10 -54 19 -54 33 0 5 8 8 18 6 11 -2 20 2 21
7 3 18 -46 17 -53 0z m94 -65 c0 -5 -5 -10 -11 -10 -5 0 -7 5 -4 10 3 6 8 10
11 10 2 0 4 -4 4 -10z m120 0 c0 -5 -4 -10 -10 -10 -5 0 -10 5 -10 10 0 6 5
10 10 10 6 0 10 -4 10 -10z"/>
<path d="M3347 2045 c-16 -8 -27 -10 -27 -4 0 6 -15 9 -32 7 -25 -2 -34 -8
-36 -25 -2 -13 -8 -23 -14 -23 -6 0 -8 -3 -5 -7 11 -11 56 -12 63 -2 3 5 14 7
25 4 12 -4 19 -2 19 6 0 10 3 10 12 1 18 -18 49 -15 42 3 -4 8 -1 15 5 15 17
0 13 18 -7 29 -13 7 -27 6 -45 -4z m-65 -37 c-9 -9 -12 -7 -12 12 0 19 3 21
12 12 9 -9 9 -15 0 -24z"/>
<path d="M2648 1968 c-221 -25 -379 -177 -338 -327 31 -115 161 -150 245 -65
40 40 46 80 15 107 -30 26 -26 70 10 101 59 49 182 54 303 12 41 -14 95 -26
119 -26 90 1 159 55 174 139 12 63 12 63 -236 65 -124 1 -255 -2 -292 -6z"/>
<path d="M5340 1870 c14 -11 29 -20 33 -20 13 0 -16 25 -38 33 -16 6 -15 3 5
-13z"/>
<path d="M5302 1858 c-7 -7 -12 -17 -12 -24 0 -7 -4 -14 -8 -16 -17 -6 -133
-189 -127 -199 4 -5 2 -8 -3 -7 -14 4 -174 -231 -166 -243 3 -5 0 -8 -8 -7 -7
2 -12 -2 -11 -8 1 -7 -9 -15 -24 -18 -57 -15 -82 55 -44 125 l19 35 -30 2
c-46 4 -93 -52 -119 -141 -31 -104 -42 -121 -111 -173 -84 -63 -137 -113 -154
-146 -31 -59 -10 -135 52 -189 21 -19 48 -43 60 -54 12 -11 27 -21 33 -23 7
-1 29 -13 49 -27 90 -59 186 -49 236 23 33 48 41 72 56 162 15 93 20 101 77
145 54 42 83 80 83 113 0 34 -26 37 -61 8 -17 -14 -34 -26 -39 -26 -13 0 -60
22 -61 29 -5 23 -4 59 3 55 10 -7 30 35 24 51 -3 8 0 12 7 9 7 -2 20 8 29 24
14 23 15 31 5 41 -9 10 -8 11 4 6 12 -5 25 7 47 43 17 28 28 53 25 56 -4 3 -1
6 5 6 7 0 12 6 12 14 0 8 4 16 9 18 17 6 142 212 137 225 -3 7 -1 12 5 10 6
-1 16 7 22 18 7 11 14 22 17 25 29 29 29 36 1 53 -21 12 -31 13 -39 5z m-393
-567 c8 -14 7 -20 -3 -24 -19 -8 -13 -42 7 -41 9 1 15 -3 14 -8 -1 -6 4 -13
12 -16 10 -3 11 0 5 9 -9 16 15 -1 48 -33 29 -29 82 -27 116 5 21 20 22 20 22
1 0 -29 -23 -57 -80 -99 -28 -20 -48 -40 -45 -45 3 -4 -2 -13 -10 -20 -8 -6
-17 -33 -20 -58 -9 -68 -35 -156 -48 -164 -20 -13 -25 -9 -37 30 -7 20 -22 51
-33 69 -17 24 -25 29 -38 22 -13 -6 -21 -2 -33 17 -9 13 -21 22 -25 19 -5 -3
-11 1 -14 9 -6 14 -30 16 -43 4 -3 -4 2 -5 13 -4 10 2 24 -5 31 -16 7 -10 18
-15 24 -12 7 4 8 2 4 -4 -4 -7 -2 -12 3 -12 6 0 11 -4 11 -10 0 -5 -22 5 -50
22 -37 23 -47 34 -41 46 5 9 3 25 -7 41 -13 24 -13 30 2 63 10 20 44 56 76 82
40 30 68 62 85 96 27 54 39 61 54 31z m65 -16 c-4 -8 -11 -12 -16 -9 -6 4 -5
10 3 15 19 12 19 11 13 -6z m-124 -437 c0 -5 -5 -6 -11 -2 -6 3 -15 0 -20 -7
-7 -11 -9 -9 -9 7 0 11 3 24 7 27 7 8 33 -11 33 -25z m5 -76 c-4 -4 -16 4 -27
18 l-20 25 23 5 c20 5 25 2 27 -18 2 -13 1 -27 -3 -30z"/>
<path d="M4123 1798 c-11 -13 -28 -37 -36 -54 -21 -42 -73 -84 -102 -84 -12 0
-25 -7 -29 -15 -8 -23 10 -62 33 -70 20 -6 19 -8 -10 -88 -30 -82 -72 -140
-97 -135 -7 2 -30 42 -51 89 -42 95 -41 108 9 134 31 16 38 41 20 75 -12 23
-73 44 -106 36 -40 -10 -102 -74 -167 -171 -33 -49 -73 -107 -90 -128 -61 -78
-202 -119 -277 -80 -19 10 -36 26 -38 37 -4 16 1 17 40 11 126 -22 210 22 238
125 38 140 -111 226 -259 151 -42 -22 -111 -93 -136 -141 -58 -112 -47 -279
22 -342 83 -76 223 -58 336 42 l56 51 14 -33 c56 -130 244 -142 374 -24 48 43
53 44 53 11 0 -14 12 -39 28 -55 32 -37 90 -49 148 -30 56 19 133 103 183 200
40 77 42 84 26 96 -18 13 -45 9 -45 -7 0 -17 -65 -49 -98 -49 -22 0 -41 8 -59
26 -23 23 -25 31 -20 76 10 78 27 98 87 98 63 0 93 25 88 73 -3 27 -7 32 -33
35 -54 5 -57 8 -42 44 25 61 28 86 11 102 -22 22 -47 20 -71 -6z m-813 -278
c25 -25 25 -31 -1 -64 -39 -49 -110 -22 -96 36 6 23 37 46 65 47 6 1 21 -8 32
-19z m375 -40 c45 -86 -19 -180 -96 -140 -10 6 -19 19 -19 28 0 16 85 142 96
142 2 0 10 -13 19 -30z"/>
<path d="M3260 1485 c0 -8 4 -15 10 -15 5 0 7 7 4 15 -4 8 -8 15 -10 15 -2 0
-4 -7 -4 -15z"/>
<path d="M2675 1751 c-16 -4 -30 -11 -29 -16 1 -27 17 -64 25 -59 9 5 42 76
37 79 -2 1 -16 -1 -33 -4z"/>
<path d="M2787 1742 c-9 -9 -29 -53 -45 -97 -29 -80 -30 -80 -70 -86 -54 -7
-74 -25 -70 -63 2 -25 8 -32 31 -34 15 -2 27 -6 27 -9 0 -18 -67 -85 -103
-102 -80 -39 -172 -19 -184 39 -4 24 -11 30 -32 30 -100 0 -168 -155 -116
-264 48 -100 206 -132 334 -67 80 41 199 207 226 313 6 25 10 26 87 30 76 3
81 5 109 36 56 62 35 92 -64 92 -61 0 -69 2 -64 18 28 93 40 151 34 165 -9 24
-78 23 -100 -1z"/>
<path d="M3100 1720 c-25 -10 -66 -19 -92 -19 -43 -1 -47 -3 -57 -32 -14 -41
-15 -39 17 -39 15 -1 41 -7 57 -14 29 -12 32 -11 78 30 27 24 67 49 88 56 45
13 41 24 -11 32 -22 3 -52 -2 -80 -14z"/>
<path d="M3890 1525 c-7 -8 -9 -23 -5 -36 6 -17 9 -19 15 -8 25 47 19 78 -10
44z"/>
<path d="M2471 1463 c-39 -4 -42 -6 -37 -26 3 -12 6 -25 6 -29 0 -18 82 -5
108 17 6 5 -18 45 -26 43 -4 -1 -27 -3 -51 -5z"/>
</g>
</svg>
